<svg preserveAspectRatio="none" width="100%" height="100%" overflow="visible" style="display: block;" viewBox="0 0 237.48 84.29" fill="none" xmlns="http://www.w3.org/2000/svg">
<g id="SFS_logo.svg">
<path id="Vector" d="M102.98 24.65C102.16 24.38 101.4 24 100.69 23.51C100.61 23.46 100.56 23.38 100.53 23.26C100.5 23.14 100.51 23.04 100.55 22.94L101.37 21.46C101.46 21.27 101.61 21.18 101.82 21.18C101.94 21.18 102.06 21.21 102.17 21.27C103.34 22 104.44 22.37 105.45 22.37C106.28 22.37 106.93 22.17 107.41 21.77C107.89 21.37 108.13 20.85 108.13 20.21C108.13 19.79 108.01 19.43 107.78 19.14C107.55 18.85 107.23 18.6 106.84 18.4C106.45 18.2 105.88 17.95 105.13 17.65L104.45 17.37C103.39 16.92 102.49 16.34 101.76 15.63C101.03 14.93 100.67 13.89 100.67 12.54C100.67 11.59 100.88 10.74 101.32 10.01C101.75 9.27 102.35 8.7 103.11 8.3C103.87 7.9 104.76 7.69 105.76 7.69C106.59 7.69 107.41 7.83 108.23 8.1C109.05 8.37 109.79 8.75 110.45 9.24C110.53 9.29 110.58 9.37 110.61 9.49C110.64 9.61 110.63 9.71 110.59 9.81L109.82 11.29C109.73 11.48 109.58 11.57 109.37 11.57C109.24 11.57 109.13 11.54 109.02 11.48C108.41 11.09 107.83 10.81 107.27 10.64C106.71 10.47 106.22 10.38 105.78 10.38C105.08 10.38 104.52 10.57 104.11 10.95C103.7 11.33 103.5 11.82 103.5 12.42C103.5 13.02 103.72 13.53 104.17 13.93C104.62 14.33 105.33 14.73 106.32 15.14C106.46 15.19 107 15.4 107.93 15.78C108.86 16.16 109.6 16.72 110.15 17.46C110.7 18.19 110.97 19.06 110.97 20.06C110.97 21.06 110.74 21.89 110.28 22.65C109.82 23.41 109.17 24 108.35 24.42C107.53 24.84 106.57 25.05 105.49 25.05C104.65 25.05 103.81 24.91 102.99 24.64H102.98V24.65Z" fill="var(--fill-0, white)"/>
<path id="Vector_2" d="M116.29 24.45C115.58 24.03 115.02 23.44 114.61 22.69C114.2 21.94 114 21.1 114 20.16V11.84C114 11.7 114.05 11.58 114.14 11.49C114.23 11.4 114.35 11.35 114.49 11.35H116.32C116.46 11.35 116.58 11.4 116.67 11.49C116.76 11.58 116.81 11.7 116.81 11.84V19.81C116.81 20.64 117.02 21.28 117.44 21.72C117.86 22.17 118.46 22.39 119.22 22.39C120.14 22.39 120.87 22.09 121.41 21.49C121.95 20.89 122.22 20.06 122.22 19.02V11.84C122.22 11.7 122.27 11.58 122.36 11.49C122.45 11.4 122.57 11.35 122.71 11.35H124.54C124.68 11.35 124.8 11.4 124.89 11.49C124.98 11.58 125.03 11.7 125.03 11.84V24.28C125.03 24.42 124.98 24.54 124.89 24.63C124.8 24.72 124.68 24.77 124.54 24.77H122.71C122.57 24.77 122.45 24.72 122.36 24.63C122.27 24.54 122.22 24.42 122.22 24.28V23.18C121.78 23.77 121.26 24.24 120.66 24.57C120.06 24.91 119.4 25.07 118.68 25.07C117.79 25.07 116.99 24.86 116.28 24.44H116.29V24.45Z" fill="var(--fill-0, white)"/>
<path id="Vector_3" d="M130.09 24.69C129.31 24.42 128.61 24.06 128 23.59C127.92 23.53 127.87 23.45 127.85 23.34C127.83 23.23 127.83 23.14 127.85 23.05C127.96 22.8 128.23 22.31 128.65 21.57C128.77 21.38 128.93 21.29 129.12 21.29C129.23 21.29 129.34 21.32 129.45 21.38C130.01 21.77 130.54 22.06 131.03 22.24C131.52 22.42 132.04 22.51 132.59 22.51C133.25 22.51 133.75 22.39 134.09 22.15C134.43 21.91 134.61 21.58 134.61 21.15C134.61 20.79 134.46 20.51 134.16 20.31C133.86 20.11 133.3 19.85 132.47 19.54L131.63 19.21C130.94 18.94 130.36 18.66 129.87 18.35C129.38 18.05 128.97 17.63 128.64 17.1C128.31 16.57 128.14 15.9 128.14 15.11C128.14 13.88 128.55 12.89 129.37 12.17C130.19 11.44 131.28 11.08 132.64 11.08C133.44 11.08 134.22 11.21 134.98 11.47C135.74 11.73 136.42 12.08 137 12.54C137.08 12.6 137.13 12.68 137.15 12.79C137.17 12.9 137.17 12.99 137.15 13.08C137.01 13.41 136.77 13.9 136.45 14.56C136.36 14.73 136.21 14.82 136 14.82C135.89 14.82 135.78 14.79 135.67 14.73C134.59 14.03 133.59 13.67 132.67 13.67C132.14 13.67 131.72 13.78 131.42 14.01C131.12 14.24 130.96 14.55 130.96 14.96C130.96 15.37 131.13 15.71 131.48 15.98C131.83 16.25 132.46 16.57 133.38 16.93C134.27 17.27 134.96 17.57 135.46 17.81C135.96 18.05 136.41 18.43 136.82 18.96C137.23 19.48 137.44 20.16 137.44 20.99C137.44 21.82 137.23 22.52 136.82 23.15C136.41 23.78 135.83 24.26 135.08 24.6C134.33 24.94 133.49 25.12 132.54 25.12C131.7 25.12 130.88 24.99 130.1 24.72V24.69H130.09Z" fill="var(--fill-0, white)"/>
<path id="Vector_4" d="M142.38 23.66C141.62 22.91 141.24 21.92 141.24 20.7V13.97H139.62C139.48 13.97 139.36 13.92 139.27 13.83C139.18 13.74 139.13 13.62 139.13 13.48V11.84C139.13 11.7 139.18 11.58 139.27 11.49C139.36 11.4 139.48 11.35 139.62 11.35H141.24V8.82C141.24 8.68 141.29 8.56 141.38 8.47C141.47 8.38 141.59 8.33 141.73 8.33H143.56C143.7 8.33 143.82 8.38 143.91 8.47C144 8.56 144.05 8.68 144.05 8.82V11.35H148.01C148.15 11.35 148.27 11.4 148.36 11.49C148.45 11.58 148.5 11.7 148.5 11.84V13.51C148.5 13.65 148.45 13.77 148.36 13.86C148.27 13.95 148.15 14 148.01 14H144.05V20.59C144.05 21.06 144.19 21.43 144.46 21.72C144.73 22 145.1 22.14 145.55 22.14L148.01 22.16C148.15 22.16 148.27 22.21 148.36 22.3C148.45 22.39 148.5 22.51 148.5 22.65V24.29C148.5 24.43 148.45 24.55 148.36 24.64C148.27 24.73 148.15 24.78 148.01 24.78H145.34C144.12 24.78 143.13 24.4 142.37 23.66H142.38Z" fill="var(--fill-0, white)"/>
<path id="Vector_5" d="M151.73 23.97C150.91 23.23 150.5 22.26 150.5 21.07C150.5 19.99 150.88 19.1 151.63 18.38C152.38 17.67 153.44 17.2 154.8 16.99C155.14 16.96 155.47 16.91 155.79 16.85C156.88 16.73 157.55 16.63 157.78 16.57C158.36 16.48 158.65 16.15 158.65 15.58C158.65 15.01 158.41 14.54 157.94 14.18C157.46 13.83 156.86 13.65 156.15 13.65C154.88 13.65 153.96 14.11 153.38 15.03C153.26 15.23 153.11 15.33 152.93 15.33C152.81 15.33 152.7 15.3 152.63 15.24L151.32 14.35C151.18 14.26 151.11 14.12 151.11 13.95C151.11 13.9 151.13 13.83 151.16 13.74C151.61 12.88 152.29 12.21 153.18 11.74C154.07 11.26 155.08 11.03 156.21 11.03C157.24 11.03 158.15 11.23 158.93 11.62C159.71 12.01 160.32 12.57 160.75 13.29C161.18 14.01 161.39 14.84 161.39 15.78V24.29C161.39 24.43 161.34 24.55 161.25 24.64C161.16 24.73 161.04 24.78 160.9 24.78H159.31C159.17 24.78 159.05 24.74 158.96 24.65C158.87 24.56 158.82 24.44 158.82 24.29V23.38C157.74 24.52 156.46 25.09 154.97 25.09C153.66 25.09 152.59 24.72 151.77 23.98H151.73V23.97ZM156.88 22.12C157.43 21.81 157.87 21.4 158.21 20.89C158.55 20.38 158.71 19.85 158.71 19.28V18.81L156.95 19.07C156 19.18 155.38 19.27 155.1 19.33C153.82 19.56 153.18 20.12 153.18 21C153.18 21.48 153.36 21.87 153.72 22.16C154.08 22.45 154.56 22.59 155.15 22.59C155.74 22.59 156.34 22.43 156.89 22.12H156.88Z" fill="var(--fill-0, white)"/>
<path id="Vector_6" d="M166.59 24.44C166.36 24.21 166.25 23.94 166.25 23.61V14.02H164.35C164.21 14.02 164.09 13.97 164 13.88C163.91 13.79 163.86 13.67 163.86 13.53V11.84C163.86 11.7 163.91 11.58 164 11.49C164.09 11.4 164.21 11.35 164.35 11.35H167.89C168.22 11.35 168.5 11.46 168.72 11.69C168.95 11.92 169.06 12.19 169.06 12.52V22.11H170.96C171.1 22.11 171.22 22.16 171.31 22.25C171.4 22.34 171.45 22.46 171.45 22.6V24.29C171.45 24.43 171.4 24.55 171.31 24.64C171.22 24.73 171.1 24.78 170.96 24.78H167.42C167.09 24.78 166.81 24.67 166.59 24.44ZM166.5 9.64C166.41 9.55 166.36 9.43 166.36 9.29V6.73C166.36 6.59 166.41 6.47 166.5 6.38C166.59 6.29 166.71 6.24 166.85 6.24H168.44C168.58 6.24 168.7 6.29 168.79 6.38C168.88 6.47 168.93 6.59 168.93 6.73V9.29C168.93 9.43 168.88 9.55 168.79 9.64C168.7 9.73 168.58 9.78 168.44 9.78H166.85C166.71 9.78 166.59 9.73 166.5 9.64Z" fill="var(--fill-0, white)"/>
<path id="Vector_7" d="M174.17 24.64C174.08 24.55 174.03 24.43 174.03 24.29V11.85C174.03 11.71 174.08 11.59 174.17 11.5C174.26 11.41 174.38 11.36 174.52 11.36H176.35C176.49 11.36 176.61 11.41 176.7 11.5C176.79 11.59 176.84 11.71 176.84 11.85V12.95C177.28 12.36 177.8 11.89 178.4 11.55C179 11.21 179.66 11.05 180.38 11.05C181.27 11.05 182.07 11.26 182.78 11.68C183.49 12.1 184.05 12.69 184.46 13.44C184.87 14.19 185.07 15.03 185.07 15.97V24.29C185.07 24.43 185.02 24.55 184.93 24.64C184.84 24.73 184.72 24.78 184.58 24.78H182.75C182.61 24.78 182.49 24.73 182.4 24.64C182.31 24.55 182.26 24.43 182.26 24.29V16.32C182.26 15.49 182.05 14.86 181.63 14.41C181.21 13.96 180.61 13.74 179.85 13.74C178.93 13.74 178.2 14.04 177.66 14.64C177.12 15.24 176.85 16.07 176.85 17.11V24.28C176.85 24.42 176.8 24.54 176.71 24.63C176.62 24.72 176.5 24.77 176.36 24.77H174.53C174.39 24.77 174.27 24.72 174.18 24.63V24.65L174.17 24.64Z" fill="var(--fill-0, white)"/>
<path id="Vector_8" d="M188.95 23.97C188.13 23.23 187.72 22.26 187.72 21.07C187.72 19.99 188.1 19.1 188.84 18.38C189.59 17.67 190.65 17.2 192.01 16.99C192.35 16.96 192.68 16.91 192.99 16.85C194.08 16.73 194.75 16.63 194.98 16.57C195.56 16.48 195.85 16.15 195.85 15.58C195.85 15.01 195.61 14.54 195.14 14.18C194.66 13.83 194.06 13.65 193.35 13.65C192.08 13.65 191.16 14.11 190.58 15.03C190.46 15.23 190.31 15.33 190.13 15.33C190 15.33 189.9 15.3 189.83 15.24L188.52 14.35C188.38 14.26 188.31 14.12 188.31 13.95C188.31 13.9 188.33 13.83 188.36 13.74C188.81 12.88 189.48 12.21 190.38 11.74C191.27 11.26 192.28 11.03 193.4 11.03C194.43 11.03 195.34 11.23 196.12 11.62C196.9 12.01 197.51 12.57 197.94 13.29C198.37 14.01 198.59 14.84 198.59 15.78V24.29C198.59 24.43 198.54 24.55 198.45 24.64C198.36 24.73 198.24 24.78 198.1 24.78H196.51C196.37 24.78 196.25 24.74 196.16 24.65C196.07 24.56 196.02 24.44 196.02 24.29V23.38C194.94 24.52 193.66 25.09 192.18 25.09C190.87 25.09 189.8 24.72 188.98 23.98H188.95V23.97ZM194.09 22.12C194.64 21.81 195.08 21.4 195.41 20.89C195.75 20.38 195.91 19.85 195.91 19.28V18.81L194.15 19.07C193.2 19.18 192.58 19.27 192.3 19.33C191.02 19.56 190.38 20.12 190.38 21C190.38 21.48 190.56 21.87 190.92 22.16C191.28 22.45 191.76 22.59 192.35 22.59C192.94 22.59 193.54 22.43 194.09 22.12Z" fill="var(--fill-0, white)"/>
<path id="Vector_9" d="M206.11 24.63C205.51 24.33 205 23.88 204.6 23.28V24.29C204.6 24.43 204.55 24.55 204.46 24.64C204.37 24.73 204.25 24.78 204.11 24.78H202.59C202.45 24.78 202.33 24.73 202.24 24.64C202.15 24.55 202.1 24.43 202.1 24.29V7.32C202.1 7.18 202.15 7.06 202.24 6.97C202.33 6.88 202.45 6.83 202.59 6.83H204.42C204.56 6.83 204.68 6.88 204.77 6.97C204.86 7.06 204.91 7.18 204.91 7.32V12.55C205.3 12.07 205.77 11.69 206.33 11.44C206.89 11.19 207.46 11.05 208.05 11.05C209 11.05 209.88 11.3 210.68 11.79C211.48 12.28 212.11 12.94 212.58 13.77C213.05 14.6 213.28 15.49 213.28 16.44V19.7C213.28 20.65 213.04 21.54 212.57 22.37C212.09 23.2 211.45 23.86 210.65 24.35C209.84 24.84 208.98 25.09 208.06 25.09C207.37 25.09 206.73 24.94 206.13 24.63H206.11ZM209.65 21.59C210.19 21.05 210.46 20.4 210.46 19.63V16.51C210.46 15.74 210.19 15.09 209.65 14.55C209.11 14.01 208.46 13.74 207.69 13.74C206.92 13.74 206.27 14.01 205.72 14.55C205.17 15.09 204.9 15.74 204.9 16.51V19.63C204.9 20.4 205.17 21.05 205.72 21.59C206.27 22.13 206.92 22.4 207.69 22.4C208.46 22.4 209.11 22.13 209.65 21.59Z" fill="var(--fill-0, white)"/>
<path id="Vector_10" d="M217.54 24.49C217.34 24.29 217.25 24.06 217.25 23.78V9.56H215.12C214.98 9.56 214.86 9.51 214.77 9.42C214.68 9.33 214.63 9.21 214.63 9.07V7.33C214.63 7.19 214.68 7.07 214.77 6.98C214.86 6.89 214.98 6.84 215.12 6.84H219.06C219.34 6.84 219.58 6.94 219.77 7.13C219.97 7.33 220.06 7.56 220.06 7.85V22.07H222.19C222.33 22.07 222.45 22.12 222.54 22.21C222.63 22.3 222.68 22.42 222.68 22.56V24.3C222.68 24.44 222.63 24.56 222.54 24.65C222.45 24.74 222.33 24.79 222.19 24.79H218.25C217.97 24.79 217.73 24.69 217.53 24.5L217.54 24.49Z" fill="var(--fill-0, white)"/>
<path id="Vector_11" d="M227.32 24.03C226.47 23.53 225.79 22.85 225.29 21.99C224.79 21.13 224.54 20.19 224.54 19.18V16.65C224.54 15.63 224.79 14.7 225.29 13.84C225.79 12.98 226.47 12.3 227.32 11.8C228.17 11.3 229.11 11.05 230.12 11.05C231.13 11.05 232.07 11.3 232.92 11.8C233.77 12.3 234.45 12.98 234.95 13.84C235.45 14.7 235.7 15.64 235.7 16.65V18.22C235.7 18.5 235.6 18.74 235.41 18.94C235.21 19.14 234.98 19.23 234.69 19.23H227.35V19.35C227.35 20.12 227.62 20.77 228.16 21.31C228.7 21.85 229.35 22.12 230.12 22.12H233.85C233.99 22.12 234.11 22.17 234.2 22.26C234.29 22.35 234.34 22.47 234.34 22.61V24.3C234.34 24.44 234.29 24.56 234.2 24.65C234.11 24.74 233.99 24.79 233.85 24.79H230.12C229.1 24.79 228.17 24.54 227.32 24.04V24.03ZM232.89 16.7V16.49C232.89 15.72 232.62 15.07 232.08 14.53C231.54 13.99 230.89 13.72 230.12 13.72C229.35 13.72 228.7 13.99 228.16 14.53C227.62 15.07 227.35 15.72 227.35 16.49V16.7H232.89Z" fill="var(--fill-0, white)"/>
<path id="Vector_12" d="M101.35 50.25C101.26 50.16 101.21 50.04 101.21 49.9V34.65C101.21 34.37 101.31 34.13 101.5 33.94C101.7 33.74 101.93 33.65 102.22 33.65H110.22C110.36 33.65 110.48 33.7 110.57 33.79C110.66 33.88 110.71 34 110.71 34.14V35.9C110.71 36.04 110.66 36.16 110.57 36.25C110.48 36.34 110.36 36.39 110.22 36.39H104.08V40.77H108.65C108.79 40.77 108.91 40.82 109 40.91C109.09 41 109.14 41.12 109.14 41.26V42.93C109.14 43.07 109.09 43.19 109 43.28C108.91 43.37 108.79 43.42 108.65 43.42H104.08V49.92C104.08 50.06 104.03 50.18 103.94 50.27C103.85 50.36 103.73 50.41 103.59 50.41H101.71C101.57 50.41 101.45 50.36 101.36 50.27H101.35V50.25Z" fill="var(--fill-0, white)"/>
<path id="Vector_13" d="M115.42 50.06C115.19 49.83 115.08 49.56 115.08 49.23V39.64H113.18C113.04 39.64 112.92 39.59 112.83 39.5C112.74 39.41 112.69 39.29 112.69 39.15V37.46C112.69 37.32 112.74 37.2 112.83 37.11C112.92 37.02 113.04 36.97 113.18 36.97H116.72C117.05 36.97 117.33 37.08 117.55 37.31C117.78 37.54 117.89 37.81 117.89 38.14V47.73H119.79C119.93 47.73 120.05 47.78 120.14 47.87C120.23 47.96 120.28 48.08 120.28 48.22V49.91C120.28 50.05 120.23 50.17 120.14 50.26C120.05 50.35 119.93 50.4 119.79 50.4H116.25C115.92 50.4 115.64 50.29 115.42 50.06ZM115.34 35.26C115.25 35.17 115.2 35.05 115.2 34.91V32.35C115.2 32.21 115.25 32.09 115.34 32C115.43 31.91 115.55 31.86 115.69 31.86H117.28C117.42 31.86 117.54 31.91 117.63 32C117.72 32.09 117.77 32.21 117.77 32.35V34.91C117.77 35.05 117.72 35.17 117.63 35.26C117.54 35.35 117.42 35.4 117.28 35.4H115.69C115.55 35.4 115.43 35.35 115.34 35.26Z" fill="var(--fill-0, white)"/>
<path id="Vector_14" d="M123.01 50.25C122.92 50.16 122.87 50.04 122.87 49.9V37.46C122.87 37.32 122.92 37.2 123.01 37.11C123.1 37.02 123.22 36.97 123.36 36.97H125.19C125.33 36.97 125.45 37.02 125.54 37.11C125.63 37.2 125.68 37.32 125.68 37.46V38.56C126.12 37.97 126.64 37.5 127.24 37.16C127.84 36.82 128.5 36.66 129.22 36.66C130.11 36.66 130.91 36.87 131.62 37.29C132.33 37.71 132.89 38.3 133.3 39.05C133.71 39.8 133.91 40.64 133.91 41.58V49.9C133.91 50.04 133.86 50.16 133.77 50.25C133.68 50.34 133.56 50.39 133.42 50.39H131.59C131.45 50.39 131.33 50.34 131.24 50.25C131.15 50.16 131.1 50.04 131.1 49.9V41.93C131.1 41.1 130.89 40.47 130.47 40.02C130.05 39.57 129.45 39.35 128.69 39.35C127.77 39.35 127.04 39.65 126.5 40.25C125.96 40.85 125.69 41.68 125.69 42.72V49.89C125.69 50.03 125.64 50.15 125.55 50.24C125.46 50.33 125.34 50.38 125.2 50.38H123.37C123.23 50.38 123.11 50.33 123.02 50.24V50.26L123.01 50.25Z" fill="var(--fill-0, white)"/>
<path id="Vector_15" d="M137.79 49.59C136.97 48.85 136.56 47.88 136.56 46.69C136.56 45.61 136.94 44.72 137.68 44C138.43 43.29 139.49 42.82 140.85 42.61C141.19 42.58 141.52 42.53 141.83 42.47C142.92 42.35 143.59 42.25 143.82 42.19C144.4 42.1 144.69 41.77 144.69 41.2C144.69 40.63 144.45 40.16 143.98 39.8C143.5 39.45 142.9 39.27 142.19 39.27C140.92 39.27 140 39.73 139.42 40.65C139.3 40.85 139.15 40.95 138.97 40.95C138.84 40.95 138.74 40.92 138.67 40.86L137.36 39.97C137.22 39.88 137.15 39.74 137.15 39.57C137.15 39.52 137.17 39.45 137.2 39.36C137.65 38.5 138.32 37.83 139.22 37.36C140.11 36.88 141.12 36.65 142.24 36.65C143.27 36.65 144.18 36.85 144.96 37.24C145.74 37.63 146.35 38.19 146.78 38.91C147.21 39.63 147.43 40.46 147.43 41.4V49.91C147.43 50.05 147.38 50.17 147.29 50.26C147.2 50.35 147.08 50.4 146.94 50.4H145.35C145.21 50.4 145.09 50.36 145 50.27C144.91 50.18 144.86 50.06 144.86 49.91V49C143.78 50.14 142.5 50.71 141.02 50.71C139.71 50.71 138.64 50.34 137.82 49.6H137.79V49.59ZM142.93 47.73C143.48 47.42 143.92 47.01 144.25 46.5C144.59 45.99 144.75 45.46 144.75 44.89V44.42L142.99 44.68C142.04 44.79 141.42 44.88 141.14 44.94C139.86 45.17 139.22 45.73 139.22 46.61C139.22 47.09 139.4 47.48 139.76 47.77C140.12 48.06 140.6 48.2 141.19 48.2C141.78 48.2 142.38 48.04 142.93 47.73Z" fill="var(--fill-0, white)"/>
<path id="Vector_16" d="M151.06 50.25C150.97 50.16 150.92 50.04 150.92 49.9V37.46C150.92 37.32 150.97 37.2 151.06 37.11C151.15 37.02 151.27 36.97 151.41 36.97H153.24C153.38 36.97 153.5 37.02 153.59 37.11C153.68 37.2 153.73 37.32 153.73 37.46V38.56C154.17 37.97 154.69 37.5 155.29 37.16C155.89 36.82 156.55 36.66 157.27 36.66C158.16 36.66 158.96 36.87 159.67 37.29C160.38 37.71 160.94 38.3 161.35 39.05C161.76 39.8 161.96 40.64 161.96 41.58V49.9C161.96 50.04 161.91 50.16 161.82 50.25C161.73 50.34 161.61 50.39 161.47 50.39H159.64C159.5 50.39 159.38 50.34 159.29 50.25C159.2 50.16 159.15 50.04 159.15 49.9V41.93C159.15 41.1 158.94 40.47 158.52 40.02C158.1 39.57 157.5 39.35 156.74 39.35C155.82 39.35 155.09 39.65 154.55 40.25C154.01 40.85 153.74 41.68 153.74 42.72V49.89C153.74 50.03 153.69 50.15 153.6 50.24C153.51 50.33 153.39 50.38 153.25 50.38H151.42C151.28 50.38 151.16 50.33 151.07 50.24V50.26L151.06 50.25Z" fill="var(--fill-0, white)"/>
<path id="Vector_17" d="M167.78 49.95C166.93 49.45 166.25 48.77 165.75 47.91C165.25 47.05 165 46.11 165 45.1V42.26C165 41.24 165.25 40.31 165.75 39.45C166.25 38.59 166.93 37.91 167.78 37.41C168.63 36.91 169.57 36.66 170.58 36.66C171.36 36.66 172.11 36.82 172.83 37.14C173.55 37.46 174.17 37.91 174.68 38.49C174.79 38.6 174.84 38.72 174.84 38.87C174.84 39.04 174.77 39.2 174.63 39.34L173.62 40.35C173.51 40.46 173.39 40.51 173.24 40.51C173.09 40.51 172.97 40.44 172.84 40.3C172.23 39.69 171.47 39.38 170.57 39.38C169.8 39.38 169.15 39.65 168.61 40.19C168.07 40.73 167.8 41.38 167.8 42.15V45.22C167.8 45.99 168.07 46.64 168.61 47.18C169.15 47.72 169.8 47.99 170.57 47.99C171.48 47.99 172.24 47.69 172.84 47.08C172.96 46.94 173.1 46.87 173.24 46.87C173.38 46.87 173.51 46.92 173.62 47.03L174.63 48.04C174.77 48.18 174.84 48.34 174.84 48.51C174.84 48.65 174.79 48.78 174.68 48.89C174.16 49.47 173.55 49.92 172.83 50.24C172.11 50.56 171.36 50.72 170.58 50.72C169.56 50.72 168.63 50.47 167.78 49.97V49.95Z" fill="var(--fill-0, white)"/>
<path id="Vector_18" d="M179.79 49.65C178.94 49.15 178.26 48.47 177.76 47.61C177.26 46.75 177.01 45.81 177.01 44.8V42.27C177.01 41.25 177.26 40.32 177.76 39.46C178.26 38.6 178.94 37.92 179.79 37.42C180.64 36.92 181.58 36.67 182.59 36.67C183.6 36.67 184.54 36.92 185.39 37.42C186.24 37.92 186.92 38.6 187.42 39.46C187.92 40.32 188.17 41.26 188.17 42.27V43.84C188.17 44.12 188.07 44.36 187.88 44.56C187.69 44.76 187.45 44.85 187.17 44.85H179.83V44.97C179.83 45.74 180.1 46.39 180.64 46.93C181.18 47.47 181.83 47.74 182.6 47.74H186.33C186.47 47.74 186.59 47.79 186.68 47.88C186.77 47.97 186.82 48.09 186.82 48.23V49.92C186.82 50.06 186.77 50.18 186.68 50.27C186.59 50.36 186.47 50.41 186.33 50.41H182.6C181.58 50.41 180.65 50.16 179.8 49.66H179.79V49.65ZM185.36 42.32V42.11C185.36 41.34 185.09 40.69 184.55 40.15C184.01 39.61 183.36 39.34 182.59 39.34C181.82 39.34 181.17 39.61 180.63 40.15C180.09 40.69 179.82 41.34 179.82 42.11V42.32H185.36Z" fill="var(--fill-0, white)"/>
<path id="Vector_19" d="M102.98 75.88C102.16 75.61 101.4 75.23 100.69 74.74C100.61 74.69 100.56 74.61 100.53 74.49C100.5 74.37 100.51 74.27 100.55 74.17L101.37 72.69C101.46 72.5 101.61 72.41 101.82 72.41C101.94 72.41 102.06 72.44 102.17 72.5C103.34 73.23 104.44 73.6 105.45 73.6C106.28 73.6 106.93 73.4 107.41 73C107.89 72.6 108.13 72.08 108.13 71.44C108.13 71.02 108.01 70.66 107.78 70.37C107.55 70.08 107.23 69.83 106.84 69.63C106.45 69.43 105.88 69.18 105.13 68.88L104.45 68.6C103.39 68.15 102.49 67.57 101.76 66.86C101.03 66.16 100.67 65.12 100.67 63.77C100.67 62.82 100.88 61.97 101.32 61.24C101.75 60.5 102.35 59.93 103.11 59.53C103.87 59.13 104.76 58.92 105.76 58.92C106.59 58.92 107.41 59.06 108.23 59.33C109.05 59.6 109.79 59.98 110.45 60.47C110.53 60.52 110.58 60.6 110.61 60.72C110.64 60.84 110.63 60.94 110.59 61.04L109.82 62.52C109.73 62.71 109.58 62.8 109.37 62.8C109.24 62.8 109.13 62.77 109.02 62.71C108.41 62.32 107.83 62.04 107.27 61.87C106.71 61.7 106.22 61.61 105.78 61.61C105.08 61.61 104.52 61.8 104.11 62.18C103.7 62.56 103.5 63.05 103.5 63.65C103.5 64.25 103.72 64.76 104.17 65.16C104.62 65.56 105.33 65.96 106.32 66.37C106.46 66.42 107 66.63 107.93 67.01C108.86 67.39 109.6 67.95 110.15 68.69C110.7 69.42 110.97 70.29 110.97 71.29C110.97 72.29 110.74 73.12 110.28 73.88C109.82 74.64 109.17 75.23 108.35 75.65C107.53 76.07 106.57 76.28 105.49 76.28C104.65 76.28 103.81 76.14 102.99 75.87H102.98V75.88Z" fill="var(--fill-0, #007E5C)"/>
<path id="Vector_20" d="M116.29 75.68C115.58 75.26 115.02 74.67 114.61 73.92C114.2 73.17 114 72.33 114 71.39V63.07C114 62.93 114.05 62.81 114.14 62.72C114.23 62.63 114.35 62.58 114.49 62.58H116.32C116.46 62.58 116.58 62.63 116.67 62.72C116.76 62.81 116.81 62.93 116.81 63.07V71.04C116.81 71.87 117.02 72.51 117.44 72.95C117.86 73.4 118.46 73.62 119.22 73.62C120.14 73.62 120.87 73.32 121.41 72.72C121.95 72.12 122.22 71.29 122.22 70.25V63.07C122.22 62.93 122.27 62.81 122.36 62.72C122.45 62.63 122.57 62.58 122.71 62.58H124.54C124.68 62.58 124.8 62.63 124.89 62.72C124.98 62.81 125.03 62.93 125.03 63.07V75.51C125.03 75.65 124.98 75.77 124.89 75.86C124.8 75.95 124.68 76 124.54 76H122.71C122.57 76 122.45 75.95 122.36 75.86C122.27 75.77 122.22 75.65 122.22 75.51V74.41C121.78 75 121.26 75.47 120.66 75.8C120.06 76.14 119.4 76.3 118.68 76.3C117.79 76.3 116.99 76.09 116.28 75.67H116.29V75.68Z" fill="var(--fill-0, #007E5C)"/>
<path id="Vector_21" d="M128.91 75.87C128.82 75.78 128.77 75.66 128.77 75.52V63.08C128.77 62.94 128.82 62.82 128.91 62.73C129 62.64 129.12 62.59 129.26 62.59H131.09C131.23 62.59 131.35 62.64 131.44 62.73C131.53 62.82 131.58 62.94 131.58 63.08V64.3C132.03 63.63 132.57 63.12 133.19 62.79C133.81 62.45 134.46 62.29 135.15 62.29C136.01 62.29 136.77 62.49 137.44 62.9C138.1 63.31 138.63 63.89 139.02 64.64C139.46 63.91 140.04 63.33 140.78 62.92C141.51 62.51 142.3 62.3 143.15 62.3C144.51 62.3 145.59 62.75 146.39 63.65C147.19 64.55 147.59 65.74 147.59 67.23V75.55C147.59 75.69 147.54 75.81 147.45 75.9C147.36 75.99 147.24 76.04 147.1 76.04H145.27C145.13 76.04 145.01 75.99 144.92 75.9C144.83 75.81 144.78 75.69 144.78 75.55V67.58C144.78 66.75 144.59 66.12 144.22 65.67C143.84 65.22 143.31 65 142.6 65C141.68 65 140.95 65.3 140.41 65.9C139.87 66.5 139.6 67.33 139.6 68.37V75.54C139.6 75.68 139.55 75.8 139.46 75.89C139.37 75.98 139.25 76.03 139.11 76.03H137.28C137.14 76.03 137.02 75.98 136.93 75.89C136.84 75.8 136.79 75.68 136.79 75.54V67.57C136.79 66.74 136.6 66.11 136.23 65.66C135.85 65.21 135.32 64.99 134.61 64.99C133.69 64.99 132.96 65.29 132.42 65.89C131.88 66.49 131.61 67.32 131.61 68.36V75.53C131.61 75.67 131.56 75.79 131.47 75.88C131.38 75.97 131.26 76.02 131.12 76.02H129.29C129.15 76.02 129.03 75.97 128.94 75.88H128.91V75.87Z" fill="var(--fill-0, #007E5C)"/>
<path id="Vector_22" d="M151.13 75.87C151.04 75.78 150.99 75.66 150.99 75.52V63.08C150.99 62.94 151.04 62.82 151.13 62.73C151.22 62.64 151.34 62.59 151.48 62.59H153.31C153.45 62.59 153.57 62.64 153.66 62.73C153.75 62.82 153.8 62.94 153.8 63.08V64.3C154.25 63.63 154.79 63.12 155.41 62.79C156.03 62.45 156.68 62.29 157.37 62.29C158.23 62.29 158.99 62.49 159.66 62.9C160.32 63.31 160.85 63.89 161.24 64.64C161.68 63.91 162.26 63.33 163 62.92C163.73 62.51 164.52 62.3 165.37 62.3C166.73 62.3 167.81 62.75 168.61 63.65C169.41 64.55 169.81 65.74 169.81 67.23V75.55C169.81 75.69 169.76 75.81 169.67 75.9C169.58 75.99 169.46 76.04 169.32 76.04H167.49C167.35 76.04 167.23 75.99 167.14 75.9C167.05 75.81 167 75.69 167 75.55V67.58C167 66.75 166.81 66.12 166.44 65.67C166.06 65.22 165.53 65 164.82 65C163.9 65 163.17 65.3 162.63 65.9C162.09 66.5 161.82 67.33 161.82 68.37V75.54C161.82 75.68 161.77 75.8 161.68 75.89C161.59 75.98 161.47 76.03 161.33 76.03H159.5C159.36 76.03 159.24 75.98 159.15 75.89C159.06 75.8 159.01 75.68 159.01 75.54V67.57C159.01 66.74 158.82 66.11 158.45 65.66C158.07 65.21 157.54 64.99 156.83 64.99C155.91 64.99 155.18 65.29 154.64 65.89C154.1 66.49 153.83 67.32 153.83 68.36V75.53C153.83 75.67 153.78 75.79 153.69 75.88C153.6 75.97 153.48 76.02 153.34 76.02H151.51C151.37 76.02 151.25 75.97 151.16 75.88H151.13V75.87Z" fill="var(--fill-0, #007E5C)"/>
<path id="Vector_23" d="M175.05 75.67C174.82 75.44 174.71 75.17 174.71 74.84V65.25H172.81C172.67 65.25 172.55 65.2 172.46 65.11C172.37 65.02 172.32 64.9 172.32 64.76V63.07C172.32 62.93 172.37 62.81 172.46 62.72C172.55 62.63 172.67 62.58 172.81 62.58H176.35C176.68 62.58 176.96 62.69 177.18 62.92C177.41 63.15 177.52 63.42 177.52 63.75V73.34H179.42C179.56 73.34 179.68 73.39 179.77 73.48C179.86 73.57 179.91 73.69 179.91 73.83V75.52C179.91 75.66 179.86 75.78 179.77 75.87C179.68 75.96 179.56 76.01 179.42 76.01H175.88C175.55 76.01 175.27 75.9 175.05 75.67ZM174.97 60.87C174.88 60.78 174.83 60.66 174.83 60.52V57.96C174.83 57.82 174.88 57.7 174.97 57.61C175.06 57.52 175.18 57.47 175.32 57.47H176.91C177.05 57.47 177.17 57.52 177.26 57.61C177.35 57.7 177.4 57.82 177.4 57.96V60.52C177.4 60.66 177.35 60.78 177.26 60.87C177.17 60.96 177.05 61.01 176.91 61.01H175.32C175.18 61.01 175.06 60.96 174.97 60.87Z" fill="var(--fill-0, #007E5C)"/>
<path id="Vector_24" d="M184.27 74.89C183.51 74.14 183.13 73.15 183.13 71.93V65.2H181.51C181.37 65.2 181.25 65.15 181.16 65.06C181.07 64.97 181.02 64.85 181.02 64.71V63.07C181.02 62.93 181.07 62.81 181.16 62.72C181.25 62.63 181.37 62.58 181.51 62.58H183.13V60.05C183.13 59.91 183.18 59.79 183.27 59.7C183.36 59.61 183.48 59.56 183.62 59.56H185.45C185.59 59.56 185.71 59.61 185.8 59.7C185.89 59.79 185.94 59.91 185.94 60.05V62.58H189.9C190.04 62.58 190.16 62.63 190.25 62.72C190.34 62.81 190.39 62.93 190.39 63.07V64.74C190.39 64.88 190.34 65 190.25 65.09C190.16 65.18 190.04 65.23 189.9 65.23H185.94V71.82C185.94 72.29 186.08 72.66 186.35 72.95C186.62 73.23 186.99 73.37 187.44 73.37L189.9 73.39C190.04 73.39 190.16 73.44 190.25 73.53C190.34 73.62 190.39 73.74 190.39 73.88V75.52C190.39 75.66 190.34 75.78 190.25 75.87C190.16 75.96 190.04 76.01 189.9 76.01H187.23C186.01 76.01 185.02 75.63 184.26 74.89H184.27Z" fill="var(--fill-0, #007E5C)"/>
<path id="Vector_25" d="M30.34 48.06C25.1 51.55 13.42 55.98 8.74 61.78C8.41 62.19 7.76 61.96 7.76 61.43V58.35C7.76 50.73 10.48 44.09 14.67 41.09C19.89 37.36 30.63 33.42 36.3 27.1C36.64 26.72 37.26 26.96 37.26 27.46C37.26 29.09 37.26 30.8 37.26 30.8C37.26 38.42 34.85 45.06 30.35 48.06H30.34Z" fill="var(--fill-0, #92C995)"/>
<path id="Vector_26" d="M48.25 27.59C54.67 31.87 69.09 37.31 74.62 44.46C74.94 44.88 75.61 44.65 75.61 44.12V40.05C75.61 30.82 72.32 22.78 67.24 19.15C60.85 14.58 47.65 9.76 40.83 1.97C40.5 1.59 39.87 1.83 39.87 2.33C39.87 4.39 39.89 6.68 39.89 6.68C39.89 15.91 42.81 23.95 48.26 27.58L48.25 27.59Z" fill="var(--fill-0, #007E5C)"/>
<path id="Vector_27" d="M48.25 56.95C55.11 52.39 71.07 46.49 75.6 38.61V44.49C75.6 53.72 72.31 61.76 67.23 65.39C60.84 69.96 47.64 74.78 40.82 82.57C40.49 82.95 39.86 82.71 39.86 82.21C39.86 80.15 39.88 77.86 39.88 77.86C39.88 68.63 42.8 60.59 48.25 56.96V56.95Z" fill="var(--fill-0, #007E5C)"/>
<path id="Vector_28" d="M28.89 27.59C22.47 31.87 8.05 37.31 2.52 44.46C2.2 44.88 1.53 44.65 1.53 44.12V40.05C1.53 30.82 4.82 22.78 9.9 19.15C16.29 14.58 29.49 9.76 36.31 1.97C36.64 1.59 37.27 1.83 37.27 2.33C37.27 4.39 37.25 6.68 37.25 6.68C37.25 15.91 34.33 23.95 28.88 27.58L28.89 27.59Z" fill="var(--fill-0, #92C995)"/>
<path id="Vector_29" d="M28.89 56.95C22.03 52.39 6.07 46.49 1.54 38.61V44.49C1.54 53.72 4.83 61.76 9.91 65.39C16.3 69.96 29.5 74.78 36.32 82.57C36.65 82.95 37.28 82.71 37.28 82.21C37.28 80.15 37.26 77.86 37.26 77.86C37.26 68.63 34.34 60.59 28.89 56.96V56.95Z" fill="var(--fill-0, #007E5C)"/>
</g>
</svg>
